<svg xmlns="http://www.w3.org/2000/svg" xmlns:xlink="http://www.w3.org/1999/xlink" version="1.1" x="0px" y="0px" viewBox="0 0 100 125" style="enable-background:new 0 0 100 100;" xml:space="preserve"><style type="text/css">
	.st0{fill:none;stroke:#000000;stroke-miterlimit:10;}
</style><g><path d="M14.4,86.9C11,86.9,7,86.5,7,84.7V21.5h1.4c0,0.5,2,1.4,5.9,1.4c3.9,0,5.9-0.9,5.9-1.4h1.4v63.2   C21.7,86.5,17.7,86.9,14.4,86.9z M8.5,84.6c0.4,0.4,2.5,0.8,5.9,0.8c3.4,0,5.5-0.5,5.9-0.8V23.4c-1.9,0.9-5,1-5.9,1   c-0.8,0-4-0.1-5.9-1V84.6z"/></g><g><path d="M27.6,86.9c-4.9,0-7.3-0.7-7.3-2v-58h1.4c0,0.3,1.8,1.3,5.9,1.3c4.1,0,5.9-0.9,5.9-1.3h1.4v58   C34.9,86.2,32.4,86.9,27.6,86.9z M21.7,84.7c0.5,0.3,2.5,0.8,5.9,0.8c3.4,0,5.4-0.4,5.9-0.8V28.6c-1.8,0.8-4.7,0.9-5.9,0.9   c-1.2,0-4.1-0.1-5.9-0.9V84.7z"/></g><g><path d="M40.7,87c-4.8,0-7.2-0.7-7.2-2v-58h1.4c0,0.3,1.8,1.3,5.8,1.3s5.8-0.9,5.8-1.3h1.4v58C47.9,86.4,45.5,87,40.7,87z    M34.9,84.8c0.5,0.3,2.5,0.8,5.8,0.8s5.3-0.4,5.8-0.8V28.7c-1.8,0.8-4.7,0.9-5.8,0.9s-4-0.1-5.8-0.9V84.8z"/></g><g><path d="M53.8,86.9c-3.3,0-7.3-0.4-7.3-2.2V20h1.4c0,0.6,2.2,1.5,5.9,1.5s5.9-0.9,5.9-1.5h1.4v64.6C61.1,86.5,57.2,86.9,53.8,86.9z    M47.9,22v62.7c0.2,0.2,2.2,0.8,5.9,0.8c3.5,0,5.5-0.5,5.9-0.9V22c-1.4,0.7-3.7,1-5.9,1C51.6,23,49.3,22.7,47.9,22z"/></g><g><rect x="10.9" y="25.5" width="6.7" height="1.4"/></g><g><rect x="10.9" y="28.1" width="6.7" height="1.4"/></g><g><rect x="10.9" y="30.8" width="6.7" height="1.4"/></g><g><rect x="11" y="80.1" width="6.7" height="1.4"/></g><g><rect x="24.2" y="78.9" width="6.7" height="1.4"/></g><g><rect x="24.9" y="38.7" width="1.4" height="32"/></g><g><rect x="28.8" y="38.7" width="1.4" height="32"/></g><g><rect x="34.2" y="78.8" transform="matrix(0.9998 -1.855149e-02 1.855149e-02 0.9998 -1.468 0.7706)" width="13.2" height="1.4"/></g><g><rect x="34.2" y="75" transform="matrix(0.9998 -1.855149e-02 1.855149e-02 0.9998 -1.3972 0.7699)" width="13.2" height="1.4"/></g><g><rect x="47.2" y="78.9" transform="matrix(0.9998 -1.757541e-02 1.757541e-02 0.9998 -1.3903 0.9581)" width="13.2" height="1.4"/></g><g><rect x="47.2" y="28.1" transform="matrix(0.9998 -1.757541e-02 1.757541e-02 0.9998 -0.4989 0.9502)" width="13.2" height="1.4"/></g><g><path d="M73.4,31.5c0.1,0.5-1.8,1.8-5.3,2.8c-3.5,1-5.9,0.9-6,0.5l-1.4,0.4l14.7,50.9c0.4,1.4,4.3,0.6,7.5-0.3   c3.2-0.9,7-2.3,6.5-3.8L74.8,31.1L73.4,31.5z M86.6,77.1l-11.3,3.4l-10-34.6l11.3-3.4L86.6,77.1z M76.3,41.4L65,44.8l-0.5-1.9   l11.3-3.4L76.3,41.4z M68.4,35.4c2.1-0.6,4.2-1.5,5.4-2.4l1.5,5.3l-11.3,3.4l-1.6-5.5C64.1,36.4,66.3,36,68.4,35.4z M82.6,84.7   c-3.5,1-5.6,1.1-5.8,1l-1.2-4l11.3-3.4l1.2,4.1C87.8,82.7,86,83.7,82.6,84.7z"/><rect x="75.1" y="47.7" transform="matrix(0.961 -0.2766 0.2766 0.961 -13.8694 23.3562)" width="1.4" height="26.2"/></g><g><path class="st0" d="M56.7,51.5"/></g><g><rect x="56" y="48.8" width="1.4" height="5.3"/></g><g><rect x="51.4" y="50.7" width="5.3" height="1.4"/></g><g><path class="st0" d="M56.7,44.3"/></g><g><rect x="56" y="41.6" width="1.4" height="5.3"/></g><g><rect x="51.4" y="43.5" width="5.3" height="1.4"/></g><text x="0" y="115" fill="#000000" font-size="5px" font-weight="bold" font-family="'Helvetica Neue', Helvetica, Arial-Unicode, Arial, Sans-serif">Created by Abdo</text><text x="0" y="120" fill="#000000" font-size="5px" font-weight="bold" font-family="'Helvetica Neue', Helvetica, Arial-Unicode, Arial, Sans-serif">from the Noun Project</text></svg>