<svg xmlns="http://www.w3.org/2000/svg" xmlns:xlink="http://www.w3.org/1999/xlink" version="1.1" x="0px" y="0px" viewBox="0 0 100 125" enable-background="new 0 0 100 100" xml:space="preserve"><g><path d="M45.902,39.892c-5.755,0-10.438,6.901-10.438,15.382c0,8.481,4.683,15.382,10.438,15.382c5.755,0,10.438-6.9,10.438-15.382   C56.34,46.793,51.657,39.892,45.902,39.892z M37.081,55.274c0-6.965,3.334-12.723,7.642-13.627c1.369,1.97,2.265,3.752,2.498,6.174   c0.327,3.394-0.744,5.478-2.226,8.362c-0.216,0.422-0.44,0.858-0.667,1.313c-1.108,2.22-1.635,5.499-1.28,7.974   c0.142,0.992,0.657,2.234,1.418,3.371C40.284,67.766,37.081,62.101,37.081,55.274z M46.618,68.982   c-1.004-1.068-1.801-2.552-1.972-3.741c-0.307-2.146,0.166-5.101,1.127-7.024c0.224-0.448,0.444-0.879,0.659-1.295   c1.547-3.011,2.769-5.39,2.397-9.255c-0.232-2.411-1.019-4.23-2.219-6.102c4.534,0.566,8.113,6.492,8.113,13.709   C54.724,62.488,51.148,68.411,46.618,68.982z"/><path d="M70.319,51.171c5.313-2.211,6.985-10.38,3.728-18.21c-3.258-7.831-10.232-12.403-15.545-10.192   c-5.314,2.211-6.986,10.381-3.728,18.211C58.033,48.81,65.006,53.381,70.319,51.171z M72.555,33.58   c2.771,6.661,1.746,13.503-2.216,15.771c-1.338-0.601-2.644-1.664-3.259-2.697c-1.107-1.863-1.805-4.772-1.658-6.918   c0.035-0.499,0.073-0.981,0.111-1.448c0.271-3.375,0.485-6.04-1.342-9.466c-1.141-2.137-2.566-3.515-4.393-4.782   C64.201,22.821,69.782,26.917,72.555,33.58z M58.086,24.841c2.021,1.293,3.533,2.593,4.679,4.741   c1.604,3.008,1.417,5.343,1.157,8.574c-0.038,0.474-0.076,0.962-0.111,1.47c-0.171,2.476,0.604,5.705,1.881,7.854   c0.513,0.861,1.467,1.811,2.605,2.567c-4.274,0.614-9.408-3.386-12.03-9.688C53.591,33.928,54.457,27.33,58.086,24.841z"/><path d="M71.011,54.876c-6.449-1.753-12.663,0.382-13.853,4.759c-1.189,4.376,3.089,9.362,9.539,11.115   c6.449,1.753,12.664-0.382,13.854-4.758C81.74,61.615,77.46,56.63,71.011,54.876z M67.031,69.521   c-5.485-1.49-9.252-5.434-8.75-8.996c1.021-0.543,2.314-0.843,3.253-0.727c1.696,0.21,3.845,1.182,5.108,2.309   c0.297,0.262,0.577,0.52,0.85,0.769c1.969,1.799,3.525,3.219,6.542,3.735c1.882,0.321,3.429,0.101,5.099-0.427   C77.766,69.515,72.52,71.013,67.031,69.521z M74.25,65.356c-2.648-0.452-4.013-1.698-5.899-3.421   c-0.276-0.253-0.562-0.513-0.86-0.778c-1.459-1.303-3.845-2.379-5.8-2.622c-0.783-0.097-1.834,0.039-2.856,0.383   c1.682-2.958,6.652-4.224,11.844-2.813c5.295,1.439,8.986,5.165,8.783,8.628C77.68,65.366,76.141,65.68,74.25,65.356z"/><path d="M39.867,40.124c4.946-4.494,6.488-10.881,3.438-14.237c-3.05-3.356-9.555-2.431-14.501,2.064   c-4.946,4.494-6.489,10.882-3.439,14.238C28.415,45.545,34.92,44.619,39.867,40.124z M39.009,39.182   c-4.062,3.69-9.188,4.798-11.997,2.765c0.423-1.842,0.988-3.309,2.277-4.729c1.806-1.989,3.589-2.469,6.057-3.133   c0.361-0.098,0.734-0.198,1.12-0.308c1.882-0.529,4.073-1.962,5.329-3.479c0.503-0.609,0.954-1.567,1.214-2.613   C44.597,30.693,42.991,35.564,39.009,39.182z M29.66,28.892c4.206-3.823,9.557-4.876,12.291-2.538   c-0.092,1.152-0.534,2.404-1.138,3.133c-1.088,1.317-3.063,2.606-4.694,3.065c-0.379,0.109-0.748,0.207-1.104,0.304   c-2.576,0.692-4.61,1.241-6.668,3.506c-1.283,1.414-1.927,2.837-2.382,4.528C23.892,37.946,25.451,32.717,29.66,28.892z"/><path d="M22.501,56.068c-3.915,2.289-4.355,8.846-0.982,14.614c3.373,5.77,9.304,8.602,13.218,6.313   c3.916-2.289,4.355-8.846,0.982-14.615C32.347,56.609,26.417,53.78,22.501,56.068z M22.618,70.041   c-2.87-4.907-2.793-10.359,0.061-12.55c1.108,0.328,2.241,1.021,2.829,1.762c1.064,1.337,1.916,3.536,2.028,5.226   c0.028,0.395,0.048,0.774,0.068,1.144c0.145,2.663,0.26,4.768,2.05,7.249c1.118,1.549,2.376,2.474,3.938,3.269   C30.282,77.557,25.489,74.951,22.618,70.041z M34.842,75.333c-1.715-0.796-3.033-1.65-4.156-3.207   c-1.572-2.178-1.672-4.021-1.812-6.573c-0.02-0.374-0.042-0.759-0.068-1.158c-0.128-1.952-1.076-4.393-2.302-5.936   c-0.491-0.616-1.334-1.257-2.305-1.728c3.271-0.932,7.705,1.647,10.42,6.291C37.39,67.761,37.413,73.006,34.842,75.333z"/></g><text x="0" y="115" fill="#000000" font-size="5px" font-weight="bold" font-family="'Helvetica Neue', Helvetica, Arial-Unicode, Arial, Sans-serif">Created by asianson.design</text><text x="0" y="120" fill="#000000" font-size="5px" font-weight="bold" font-family="'Helvetica Neue', Helvetica, Arial-Unicode, Arial, Sans-serif">from the Noun Project</text></svg>