<svg xmlns="http://www.w3.org/2000/svg" xmlns:xlink="http://www.w3.org/1999/xlink" version="1.1" x="0px" y="0px" viewBox="0 0 100 125" enable-background="new 0 0 100 100" xml:space="preserve"><g><path d="M88.125,56.723V44.583C88.125,23.562,71.022,6.458,50,6.458c-21.022,0-38.125,17.103-38.125,38.125v12.659   C8.412,60.606,6.25,65.302,6.25,70.5c0,10.201,8.299,18.5,18.5,18.5H26V52h-1.25c-1.51,0-2.97,0.201-4.375,0.544v-7.96   c0-16.335,13.29-29.625,29.625-29.625c16.335,0,29.625,13.29,29.625,29.625v7.814C78.396,52.14,77.125,52,75.821,52h-1.25v37h1.25   c10.201,0,18.5-8.299,18.5-18.5C94.321,65.025,91.917,60.113,88.125,56.723z M8.75,70.5c0-6.362,3.735-11.862,9.125-14.438v5.01   h-2.542v2.5h2.542v1.5h-2.542v2.5h2.542v1.5h-2.542v2.5h2.542v1.5h-2.542v2.5h2.542v1.5h-2.542v2.5h2.542v5.367   C12.485,82.362,8.75,76.862,8.75,70.5z M23.5,54.549v31.902c-1.075-0.084-2.119-0.279-3.125-0.565V55.114   C21.381,54.828,22.425,54.633,23.5,54.549z M50,12.458c-17.714,0-32.125,14.411-32.125,32.125v8.755   c-1.236,0.497-2.412,1.114-3.5,1.854V44.583C14.375,24.94,30.356,8.958,50,8.958S85.625,24.94,85.625,44.583V54.84   c-1.096-0.688-2.267-1.262-3.5-1.71v-8.546C82.125,26.87,67.714,12.458,50,12.458z M77.071,54.549   c0.874,0.068,1.724,0.221,2.554,0.424v31.055c-0.83,0.203-1.68,0.355-2.554,0.424V54.549z M82.125,85.187v-5.615h2.541v-2.5h-2.541   v-1.5h2.541v-2.5h-2.541v-1.5h2.541v-2.5h-2.541v-1.5h2.541v-2.5h-2.541v-1.5h2.541v-2.5h-2.541v-5.258   c5.692,2.453,9.696,8.104,9.696,14.687S87.817,82.733,82.125,85.187z"/><rect x="29" y="69.25" width="8.167" height="2.5"/><rect x="29" y="79.25" width="5.667" height="2.5"/><rect x="29" y="59.25" width="5.667" height="2.5"/><rect x="63.583" y="69.25" width="8.167" height="2.5"/><rect x="66.083" y="59.25" width="5.667" height="2.5"/><rect x="66.083" y="79.25" width="5.667" height="2.5"/></g><text x="0" y="115" fill="#000000" font-size="5px" font-weight="bold" font-family="'Helvetica Neue', Helvetica, Arial-Unicode, Arial, Sans-serif">Created by Creative Mania</text><text x="0" y="120" fill="#000000" font-size="5px" font-weight="bold" font-family="'Helvetica Neue', Helvetica, Arial-Unicode, Arial, Sans-serif">from the Noun Project</text></svg>